<svg id="Layer_1" data-name="Layer 1" xmlns="http://www.w3.org/2000/svg" viewBox="0 0 696.085 822.085"><defs><style>.cls-1{fill:none;stroke:#fff;stroke-miterlimit:10;stroke-width:26.16px;}.cls-2{fill:#fff;}</style></defs><path class="cls-1" d="M348.042,786C40.869,652.148,32.289,374.147,32.289,374.147V36.085H663.8V374.147s-7.288,236.146-248.914,377.941l-.568-.968h0a333.594,333.594,0,0,1-54.122-141.69l-10.406-76.308"/><path class="cls-2" d="M566.981,329.707c-6.356-9.288-74.309-3.422-100.709,12.711-14.666,9.289-32.754,19.555-45.954,32.755,7.333-9.289,29.822-45.466,25.911-76.265-2.934-24.443-26.889-53.287-45.466-82.131-24.444-38.621-31.777-74.309-52.31-74.309s-27.865,35.688-52.8,74.309c-18.577,28.355-42.043,57.688-45.465,82.131-3.911,30.8,19.066,66.976,25.91,76.265-12.711-14.178-30.8-23.955-45.466-32.755-25.91-16.133-94.352-22.488-100.708-13.2-3.422,4.888-2.933,44.976,16.133,78.709,18.577,32.265,60.621,53.287,62.576,71.375,1.956,17.6-14.666,41.555-14.666,45.466,0,4.889,36.177,47.421,74.309,49.865,38.621,1.956,79.2-40.577,79.2-40.577s40.576,42.533,79.2,40.577c38.132-1.955,74.8-44.976,74.8-49.865,0-3.911-16.621-27.377-14.666-45.466s44-38.621,62.576-71.375C569.914,374.2,569.914,334.107,566.981,329.707Z"/><path class="cls-1" d="M348.042,786C40.869,652.148,32.289,374.147,32.289,374.147V36.085H663.8V374.147s-7.288,236.146-248.914,377.941l-.568-.968h0a333.594,333.594,0,0,1-54.122-141.69l-10.406-76.308"/><path class="cls-1" d="M348.042,786C40.869,652.148,32.289,374.147,32.289,374.147V36.085H663.8V374.147s-7.288,236.146-248.914,377.941l-.568-.968h0a333.594,333.594,0,0,1-54.122-141.69l-10.406-76.308"/></svg>